<?xml version="1.0" encoding="utf-8"?>
<svg viewBox="0 0 500 500" xmlns="http://www.w3.org/2000/svg" xmlns:bx="https://boxy-svg.com">
  <path d="M 271 330 m -212.411 0 a 212.411 212.411 0 1 0 424.822 0 a 212.411 212.411 0 1 0 -424.822 0 Z M 271 330 m -186.666 0 a 186.666 186.666 0 0 1 373.332 0 a 186.666 186.666 0 0 1 -373.332 0 Z" style="fill: rgb(216, 216, 216);" transform="matrix(0.758133, -0.6521, 0.6521, 0.758133, -170.647062, 176.535242)" bx:shape="ring 271 330 186.666 186.666 212.411 212.411 1@a5987869"/>
  <rect x="220.72" y="25.901" width="56.306" height="25.901" style="fill: rgb(216, 216, 216);"/>
  <rect x="209.46" y="5.63" width="77.703" height="25.901" style="fill: rgb(216, 216, 216);" rx="13.513" ry="13.513"/>
  <ellipse style="fill: rgb(216, 216, 216);" transform="matrix(0.792624, -0.609711, 0.609711, 0.792624, -217.225249, 166.700151)" cx="319.82" cy="346.847" rx="36.94" ry="36.94"/>
  <rect x="240.991" y="92.342" width="23.649" height="130.631" style="fill: rgb(216, 216, 216);" transform="matrix(0.999999, 0, 0, 1, -3.378217, 0)"/>
  <rect x="314.005" y="129.348" width="20.295" height="131.598" style="fill: rgb(216, 216, 216);" transform="matrix(0.478196, 0.878252, -0.854758, 0.521347, 338.934787, -180.908662)"/>
</svg>